PathFileType	4	(X/Y/Z)	HSS_walk3.trc
DataRate	CameraRate	NumFrames	NumMarkers	Units	OrigDataRate	OrigDataStartFrame	OrigNumFrames
120.0	120.0	7	44	mm	120.0	869	992
Frame#	Time		R.Shoulder		Offset		L.Shoulder		R.Elbow		R.Wrist.Radial		R.Wrist		R.Hand		L.Elbow		L.Wrist.Radial		L.Wrist		L.Hand		R.Hip		V.Sacral		L.PSIS		L.Hip		R.Thigh.Upper		R.Thigh.Front		R.Thigh.Rear		X.Shell.Lower.Thigh.Right		R.Knee.Lateral		R.Shank.Upper		R.Shank.Front		R.Shank.Rear		X.Shell.Lower.Shank.Right		R.Ankle.Lateral		R.Heel		R.Toe		L.Thigh.Upper		L.Thigh.Front		L.Thigh.Rear		X.Shell.Lower.Thigh.Left		L.Knee.Lateral		L.Shank.Upper		L.Shank.Front		L.Shank.Rear		X.Shell.Lower.Shank.Left		L.Ankle.Lateral		L.Heel		L.Toe		R.Troc		L.Troc		R.PSIS		L.ASIS		R.ASIS
			X1	Y1	Z1	X2	Y2	Z2	X3	Y3	Z3	X4	Y4	Z4	X5	Y5	Z5	X6	Y6	Z6	X7	Y7	Z7	X8	Y8	Z8	X9	Y9	Z9	X10	Y10	Z10	X11	Y11	Z11	X12	Y12	Z12	X13	Y13	Z13	X14	Y14	Z14	X15	Y15	Z15	X16	Y16	Z16	X17	Y17	Z17	X18	Y18	Z18	X19	Y19	Z19	X20	Y20	Z20	X21	Y21	Z21	X22	Y22	Z22	X23	Y23	Z23	X24	Y24	Z24	X25	Y25	Z25	X26	Y26	Z26	X27	Y27	Z27	X28	Y28	Z28	X29	Y29	Z29	X30	Y30	Z30	X31	Y31	Z31	X32	Y32	Z32	X33	Y33	Z33	X34	Y34	Z34	X35	Y35	Z35	X36	Y36	Z36	X37	Y37	Z37	X38	Y38	Z38	X39	Y39	Z39	X40	Y40	Z40	X41	Y41	Z41	X42	Y42	Z42	X43	Y43	Z43	X44	Y44	Z44

869	7.23333	2401.64771	1448.59180	-20.82001	2276.51538	1373.44568	-295.66464	2397.86182	1469.39478	-387.77832	2478.13745	1085.07886	41.26667	2701.06714	960.97760	64.83274	2722.69897	997.90991	3.80884	2784.24097	939.68469	53.75761	2285.99268	1133.59644	-436.18198	2313.02246	885.73267	-483.97003	2278.17920	916.46771	-538.83844	2279.46436	827.73157	-544.06653	2410.25952	1012.98157	-66.11279	2316.37476	988.94427	-234.25949	2322.28491	994.55426	-273.17133	2454.00146	1010.98035	-361.23068	2420.23926	669.65063	-50.17678	2451.23315	630.07416	-65.83089	2391.79517	633.14661	-49.26188	2418.11499	599.54401	-65.40297	2337.27905	498.82446	-89.89157	2276.58643	354.98410	-57.19792	2288.53345	307.72946	-85.35428	2235.10474	332.42337	-71.70464	2243.37427	288.15363	-85.45025	2155.83936	86.42857	-156.75076	2104.83740	62.41640	-209.65346	2302.18433	34.04970	-161.39857	2602.68213	698.07617	-361.71899	2631.08862	658.15570	-330.63873	2593.86450	653.47961	-381.09839	2626.52197	630.77692	-359.37448	2605.89746	503.07455	-344.61963	2654.00513	309.33423	-378.90082	2687.54053	298.49985	-358.96591	2634.42285	254.16339	-360.34528	2673.09888	242.87154	-365.15848	2748.79199	93.91127	-313.07098	2709.24976	40.55588	-261.97177	2891.83936	103.88962	-293.16351	2409.23877	862.26263	-30.33976	2490.41577	872.78400	-390.95468	2309.43945	996.82520	-188.53702	2514.43433	978.50610	-306.03122	2475.74585	978.57294	-87.47408
870	7.24167	2411.65405	1447.60950	-21.50710	2286.48755	1372.25586	-295.98712	2407.60840	1468.10071	-388.48077	2489.00073	1084.44409	40.53875	2713.35156	962.26526	63.95736	2734.66602	999.52106	2.95999	2796.76465	941.92847	52.80812	2294.14893	1132.98083	-436.71991	2319.84131	885.07837	-484.84647	2284.54907	915.87482	-539.65936	2285.36255	827.27600	-544.81879	2420.25415	1011.78046	-66.18123	2327.03760	987.93079	-234.76854	2332.83350	993.51935	-273.81955	2464.59839	1010.11267	-361.37732	2429.24731	668.48505	-50.54682	2460.53076	629.94324	-65.25761	2400.48389	632.27032	-49.93493	2426.94434	598.17181	-65.58412	2345.99487	497.80661	-90.20470	2282.96558	354.87823	-57.21132	2294.14331	307.42169	-85.21641	2240.91650	333.03296	-71.78038	2248.43042	288.67007	-85.57949	2157.14844	88.66624	-156.22516	2105.71899	65.67780	-208.95708	2302.27930	34.00346	-161.39088	2613.69971	697.20337	-359.76260	2642.72363	658.16455	-329.16678	2605.53491	653.10999	-379.60159	2638.19043	630.60687	-357.69086	2617.19556	502.40900	-343.38123	2662.96265	307.61765	-377.25995	2696.69507	296.94061	-357.25735	2642.98999	252.46661	-358.71451	2681.19434	240.86163	-363.49628	2754.61230	91.36094	-311.00266	2714.35498	38.30222	-260.41791	2897.50317	99.11361	-290.29697	2418.40552	861.30609	-30.74699	2501.71753	872.67188	-391.00659	2319.10327	995.83459	-189.18069	2525.05493	977.57684	-305.86606	2485.66699	977.20691	-87.36515
871	7.25000	2421.81323	1446.90930	-22.43308	2296.69800	1370.89722	-296.58347	2417.37012	1466.90051	-389.39731	2499.72656	1083.65222	39.82325	2725.24121	963.37805	62.87185	2745.99951	1000.88416	2.07206	2808.66650	943.82715	51.87265	2302.74463	1132.34180	-437.55447	2326.95312	884.34747	-485.59219	2291.75098	915.50970	-540.38599	2291.82251	826.45404	-545.35645	2430.32104	1010.41315	-66.63757	2337.37671	986.92822	-235.25218	2343.73511	992.50122	-274.20941	2475.26685	1009.40289	-361.54529	2438.59131	667.18024	-50.79144	2469.63306	628.62976	-65.57790	2409.57617	630.97394	-50.40673	2436.21191	597.01392	-65.89483	2354.85889	496.63416	-90.18366	2289.49976	354.82858	-57.25582	2299.67969	307.12570	-85.37926	2247.17847	333.80164	-72.00359	2253.73486	289.35257	-85.69466	2158.68896	91.19912	-155.81329	2106.58813	69.26656	-208.85690	2302.36841	33.94815	-161.35188	2628.63965	698.19952	-358.94586	2654.42529	658.16327	-327.93790	2617.16675	653.04175	-378.45889	2649.99414	630.61395	-356.52533	2628.69482	501.84888	-342.16241	2671.63232	306.01334	-375.50949	2705.57935	295.44052	-355.63550	2651.23340	250.84940	-357.02365	2688.45288	238.91830	-361.59076	2758.74365	88.07617	-308.84464	2717.26562	35.79542	-258.63962	2901.51953	93.54147	-286.99545	2428.10791	859.95880	-30.97854	2512.88110	872.76141	-389.83466	2329.85352	994.61340	-189.54984	2535.82666	976.84692	-305.78775	2495.08374	975.64948	-87.06667
872	7.25833	2431.96045	1446.34436	-23.29889	2306.88086	1369.86719	-297.24835	2427.29150	1465.84497	-390.28928	2510.13916	1082.98022	38.89401	2736.33398	964.14282	61.92792	2757.14795	1002.06396	1.30020	2819.99023	945.50024	51.02684	2311.73950	1131.62280	-437.87991	2334.61426	883.78259	-486.26907	2299.52466	914.92755	-540.95990	2299.20044	826.11249	-545.87457	2440.60181	1009.28259	-66.86941	2347.72339	986.14661	-235.62802	2354.01172	991.88684	-274.51019	2486.17822	1008.52136	-361.77139	2448.03467	666.26849	-51.06988	2479.12427	627.48395	-65.99242	2419.03369	629.88141	-50.69065	2445.62012	595.88904	-66.23101	2364.23120	495.71628	-90.28954	2296.36426	354.96048	-57.35690	2305.60474	306.95709	-85.48355	2253.66138	334.91315	-71.81213	2259.20312	290.08905	-85.89725	2160.10132	93.94261	-155.52983	2107.60522	73.10886	-208.61186	2302.49097	33.89304	-161.30289	2640.75537	698.36475	-358.06305	2666.44360	658.05493	-327.01987	2629.10986	652.80322	-377.49091	2662.02905	630.52728	-355.61221	2640.00732	500.97571	-340.69534	2679.33545	304.11285	-373.72177	2714.18750	294.00290	-354.10327	2680.93286	245.92612	-359.89819	2694.79736	236.84654	-360.12918	2761.38916	84.23842	-306.98895	2718.55200	32.80067	-257.47760	2904.00073	87.57062	-283.88986	2438.07666	858.86536	-31.17732	2524.44946	873.14545	-389.88748	2340.62793	993.58630	-189.93031	2546.77026	976.11383	-305.98456	2505.88135	974.75293	-87.18166
873	7.26667	2442.39600	1445.85437	-24.33444	2317.01733	1368.94360	-298.19305	2437.29321	1464.96106	-391.27448	2520.46118	1082.45264	38.10346	2747.17261	964.85687	61.11682	2767.75342	1002.83441	0.43309	2830.90991	946.63995	50.15409	2321.01709	1131.29785	-438.64325	2342.82617	883.02631	-486.79504	2307.94043	914.45020	-541.58783	2307.09619	825.55011	-546.25000	2451.39429	1008.17767	-67.11485	2359.30444	985.51947	-236.31734	2364.65747	991.12891	-275.08655	2497.01904	1007.85803	-361.82037	2457.93188	665.17535	-51.42366	2489.02026	626.45868	-66.25817	2428.91846	628.78400	-51.04422	2455.39453	594.60681	-66.62142	2374.02637	494.72113	-90.27375	2303.24658	355.28619	-57.24753	2311.66919	306.98615	-85.57023	2259.71289	336.06744	-72.56086	2264.85059	290.97540	-86.25502	2161.48120	96.85046	-155.47348	2108.76172	77.20042	-208.20340	2302.63086	33.86229	-161.24001	2649.75415	696.97925	-357.79465	2678.78857	657.86908	-326.47705	2641.29663	652.50189	-376.73926	2674.45630	630.24170	-354.93143	2651.21460	500.23080	-339.54657	2686.47119	302.01083	-371.90799	2722.51270	292.63110	-352.66354	2669.99634	255.89751	-358.86676	2700.21802	234.42261	-358.22443	2762.43237	80.44276	-305.20050	2717.83618	29.57403	-256.42645	2904.80396	80.25512	-280.92905	2448.10645	857.89246	-31.91081	2535.91626	873.59753	-389.86414	2351.48633	992.86426	-190.85611	2557.79956	975.34949	-306.10422	2516.36719	973.39441	-87.32523
874	7.27500	2452.68237	1445.53430	-25.41417	2327.23608	1367.93176	-298.84741	2447.32349	1464.16711	-392.22516	2530.07324	1081.96912	36.99793	2757.42627	965.18097	60.07003	2777.88574	1003.40631	-0.30628	2841.42090	947.54431	49.70488	2330.47778	1130.60547	-439.09134	2351.45508	882.55359	-487.39127	2317.04175	913.92395	-542.21582	2315.70312	824.67029	-546.56451	2462.16943	1007.32587	-67.44550	2370.03149	984.95441	-236.74092	2377.11694	990.38434	-275.51315	2508.29004	1007.01404	-362.02573	2467.89087	663.99792	-51.75655	2498.54077	622.89789	-69.86121	2438.89209	627.77979	-51.49492	2465.56152	593.66650	-66.79200	2383.89844	493.64291	-90.16133	2310.35864	355.64874	-57.01287	2317.94312	307.17786	-85.14004	2266.52856	337.17154	-72.79346	2271.06470	292.27603	-85.89871	2163.27124	100.24481	-155.08192	2110.47852	81.87967	-207.80920	2302.77466	33.86404	-161.11716	2661.81274	696.29559	-357.24380	2690.95654	657.49762	-326.17377	2652.99146	651.92566	-376.02756	2686.35376	629.69135	-354.38495	2662.39624	499.40298	-338.27139	2693.12891	299.77899	-370.19199	2730.54932	291.32852	-351.31921	2676.76758	253.79770	-357.00220	2704.88867	231.88542	-356.48672	2762.67749	76.51740	-303.36377	2716.41064	26.28604	-255.39790	2904.82495	72.70671	-277.94672	2458.35181	856.76569	-32.50787	2547.56299	873.60413	-389.79892	2362.44897	992.14496	-191.02818	2569.07837	974.83228	-306.29047	2527.33057	972.40234	-87.77751
875	7.28333	2462.99536	1445.15515	-26.59584	2337.73950	1367.03333	-299.61139	2457.28027	1463.45020	-393.08173	2539.49609	1081.56396	35.94381	2767.13501	965.12433	59.27470	2787.77173	1003.69922	-1.06645	2851.09253	947.93842	49.04143	2340.10864	1130.12463	-439.94681	2360.70166	881.76520	-487.69388	2326.65820	913.33636	-542.80560	2325.17944	824.13251	-546.81982	2473.25732	1006.36304	-67.61652	2381.79932	984.69299	-237.50937	2386.77368	990.14111	-276.23154	2519.81006	1006.45612	-362.05841	2478.22168	662.97327	-52.08180	2509.55103	624.14655	-66.67857	2449.35767	626.63751	-51.40877	2475.96143	592.48328	-66.83202	2394.30298	492.65555	-89.82141	2317.82153	356.07336	-56.72376	2324.24927	307.55237	-84.69120	2273.72803	338.67435	-72.36745	2277.23511	293.63937	-85.55624	2165.63696	103.87461	-154.40297	2112.45752	86.91806	-207.35905	2302.92578	33.86599	-161.01811	2673.48071	695.80304	-357.10013	2703.10205	656.98376	-326.25092	2664.14819	651.14294	-375.33868	2697.93506	628.97247	-354.19449	2673.00244	498.33414	-336.91934	2698.97485	297.68460	-367.81335	2738.29077	290.09848	-350.07318	2679.43286	253.02353	-355.75369	2709.23828	230.10597	-354.49136	2763.38062	74.19644	-301.85446	2717.09766	27.09403	-254.81001	2907.06519	63.22821	-275.48886	2468.72046	855.87842	-33.15227	2559.31860	873.09894	-389.88828	2373.52295	991.52765	-191.88972	2580.46729	974.15411	-306.50839	2538.27466	971.63196	-87.86678
